<svg xmlns="http://www.w3.org/2000/svg" width="125" height="125" viewBox="0 0 125 125">
  <g id="Grupo_526" data-name="Grupo 526" transform="translate(-470 -1029)">
    <circle id="Elipse_21" data-name="Elipse 21" cx="62.5" cy="62.5" r="62.5" transform="translate(470 1029)" fill="#468df0" opacity="0.091"/>
    <g id="Grupo_417" data-name="Grupo 417" transform="translate(11.952 8.761)">
      <path id="Caminho_2015" data-name="Caminho 2015" d="M3.777,226.682a1.2,1.2,0,0,0,1.388.975l9.794-1.713a1.2,1.2,0,0,0,.975-1.388l-.191-1.094,2.284-1.855a4.484,4.484,0,0,1,3.206-1.026l15.972,1.167c.027,0,.053,0,.08,0h.1a16.678,16.678,0,0,0,9.8-3.209,1.218,1.218,0,0,0,.13-.11L66.34,199.805a1.2,1.2,0,0,0,.067-1.644,6.278,6.278,0,0,0-8.627-.823l-8.738,6.534a7.945,7.945,0,0,0-7.5-2.783l-8.932,1.562a9.633,9.633,0,0,1-4.274-.223l-1-.285a16.215,16.215,0,0,0-14.785,3.069l-.376-2.151a1.2,1.2,0,0,0-1.388-.975L.993,203.8a1.2,1.2,0,0,0-.975,1.389Zm22.9-22.23,1,.285a12.043,12.043,0,0,0,5.343.279l8.932-1.562a5.551,5.551,0,0,1,6.078,3.345L34.66,209.137a1.2,1.2,0,1,0,.414,2.363l14.682-2.568a1.2,1.2,0,0,0,.975-1.389,7.927,7.927,0,0,0-.456-1.6l8.954-6.695.025-.019A3.884,3.884,0,0,1,63.738,199L45.7,216.663a14.27,14.27,0,0,1-8.316,2.7h-.045l-15.931-1.169a6.865,6.865,0,0,0-4.9,1.561l-1.236,1-2.23-12.749A13.831,13.831,0,0,1,26.68,204.452Zm-16.661.206,3.346,19.129-7.431,1.3L2.588,205.958Zm0,0" transform="translate(488.838 882.498)" fill="#468df0"/>
      <path id="Caminho_2016" data-name="Caminho 2016" d="M150.067,32.989A16.289,16.289,0,1,0,133.777,16.7,16.289,16.289,0,0,0,150.067,32.989Zm0-30.18a13.89,13.89,0,1,1-13.89,13.89A13.891,13.891,0,0,1,150.067,2.809Zm0,0" transform="translate(376.983 1048.754)" fill="#468df0"/>
      <path id="Caminho_2017" data-name="Caminho 2017" d="M229.67,61.963h6.711a1.2,1.2,0,0,0,0-2.4h-5.572V51.895a1.2,1.2,0,1,0-2.4,0V60.7A1.306,1.306,0,0,0,229.67,61.963Zm0,0" transform="translate(296.405 1006.009)" fill="#468df0"/>
    </g>
  </g>
</svg>
