<svg xmlns="http://www.w3.org/2000/svg" width="125" height="125" viewBox="0 0 125 125">
  <g id="Grupo_527" data-name="Grupo 527" transform="translate(-783 -1029)">
    <circle id="Elipse_22" data-name="Elipse 22" cx="62.5" cy="62.5" r="62.5" transform="translate(783 1029)" fill="#468df0" opacity="0.091"/>
    <g id="one-finger-click_1_" data-name="one-finger-click (1)" transform="translate(820.532 1055.202)">
      <path id="Caminho_2020" data-name="Caminho 2020" d="M85.242,82.673a14.171,14.171,0,0,0-8.7-4.739L68.8,76.72V63.2a5.828,5.828,0,0,0-5.821-5.821h-.087A5.828,5.828,0,0,0,57.073,63.2V84.91l-8.007-3.431A5.191,5.191,0,0,0,41.83,86.25v.073A5.2,5.2,0,0,0,43.572,90.2l13.5,12.006v5.833a1.509,1.509,0,1,0,3.018,0v-6.51a1.508,1.508,0,0,0-.506-1.128L45.577,87.948a2.175,2.175,0,0,1-.729-1.624v-.073a2.173,2.173,0,0,1,3.029-2l10.109,4.332a1.5,1.5,0,0,0,.745.115l.05-.007c.031,0,.063-.008.093-.014s.053-.013.08-.019l.06-.015c.03-.009.059-.02.088-.031l.048-.018c.029-.012.056-.025.084-.038l.049-.024c.025-.013.048-.028.072-.042l.055-.033c.02-.013.039-.028.059-.042s.041-.03.061-.046.031-.027.046-.04.043-.038.063-.058.026-.028.039-.042.04-.042.059-.065.027-.036.041-.053.032-.04.046-.062.035-.055.052-.084.017-.026.024-.04a1.5,1.5,0,0,0,.188-.73V63.2a2.806,2.806,0,0,1,2.8-2.8h.087a2.806,2.806,0,0,1,2.8,2.8V77.7a1.541,1.541,0,0,0,.009.165A1.507,1.507,0,0,0,67.059,79.5l9.03,1.416.022,0A11.2,11.2,0,0,1,85.692,91.96v.154a16.019,16.019,0,0,1-1.8,7.365L79.8,107.344a1.509,1.509,0,1,0,2.677,1.394l4.094-7.865a19.047,19.047,0,0,0,2.143-8.759V91.96A14.167,14.167,0,0,0,85.242,82.673Z" transform="translate(-41.83 -45.837)" fill="#468df0"/>
      <path id="Caminho_2021" data-name="Caminho 2021" d="M140.744,7.6a1.509,1.509,0,0,0,1.509-1.509V1.509a1.509,1.509,0,0,0-3.018,0V6.095A1.509,1.509,0,0,0,140.744,7.6Z" transform="translate(-119.637)" fill="#468df0"/>
      <path id="Caminho_2022" data-name="Caminho 2022" d="M193.189,92.906a1.509,1.509,0,0,0,1.509,1.509h4.585a1.509,1.509,0,1,0,0-3.018H194.7A1.509,1.509,0,0,0,193.189,92.906Z" transform="translate(-162.735 -73.007)" fill="#468df0"/>
      <path id="Caminho_2023" data-name="Caminho 2023" d="M188.752,31.614a1.505,1.505,0,0,0,1.067-.442l3.242-3.242a1.509,1.509,0,0,0-2.134-2.134l-3.243,3.242a1.509,1.509,0,0,0,1.067,2.576Z" transform="translate(-157.985 -20.253)" fill="#468df0"/>
      <path id="Caminho_2024" data-name="Caminho 2024" d="M72.894,31.171a1.509,1.509,0,1,0,2.134-2.134l-3.243-3.242a1.509,1.509,0,1,0-2.134,2.134Z" transform="translate(-63.7 -20.252)" fill="#468df0"/>
      <path id="Caminho_2025" data-name="Caminho 2025" d="M58.428,94.415h4.585a1.509,1.509,0,0,0,0-3.018H58.428a1.509,1.509,0,0,0,0,3.018Z" transform="translate(-53.883 -73.007)" fill="#468df0"/>
    </g>
  </g>
</svg>
