<svg xmlns="http://www.w3.org/2000/svg" width="125" height="125" viewBox="0 0 125 125">
  <g id="Grupo_528" data-name="Grupo 528" transform="translate(-1080 -1025)">
    <circle id="Elipse_23" data-name="Elipse 23" cx="62.5" cy="62.5" r="62.5" transform="translate(1080 1025)" fill="#468df0" opacity="0.091"/>
    <path id="Caminho_2019" data-name="Caminho 2019" d="M62.552,60.82H56.606l-2.259-4.039V45.763A5.871,5.871,0,0,0,50.2,40.13l-9.483-2.944V27.146a4.641,4.641,0,0,0-.759-2.549,6.859,6.859,0,0,0-1.619-13.319V6.189A6.2,6.2,0,0,0,32.146,0,1.236,1.236,0,0,0,30.91,1.236V11.1h-.017a4.023,4.023,0,0,0-4.1,3.95,4.028,4.028,0,0,0,3.95,4.1h.072a16.563,16.563,0,0,1-1.767,5.859,4.662,4.662,0,0,0-.52,2.137V37.778l-2.978,5.366L9.6,53.174a5.154,5.154,0,0,0-2.424,4.387V60.82H1.736a1.236,1.236,0,0,0,0,2.472H62.553a1.236,1.236,0,1,0,0-2.472ZM42.112,18.11a4.4,4.4,0,0,1-3.777,4.346V13.764A4.4,4.4,0,0,1,42.112,18.11ZM33.382,2.684a3.722,3.722,0,0,1,2.48,3.5V23.894a1.235,1.235,0,0,0,.862,1.178,2.167,2.167,0,0,1,1.516,2.073v9.716H31V27.146a2.154,2.154,0,0,1,.242-1,18.91,18.91,0,0,0,2.136-8.666ZM29.7,16.2a1.552,1.552,0,0,1,1.116-2.628h.052l.039,0v3.106l-.118,0A1.543,1.543,0,0,1,29.7,16.2ZM19.2,55.444a1.236,1.236,0,0,0-1.655-.564l-5.477,2.69a1.24,1.24,0,0,0-.229.146L9.648,59.477V57.561a2.7,2.7,0,0,1,1.268-2.294l16.223-10.2a1.237,1.237,0,0,0,.423-.446L30.5,39.334h6.672L33.6,44.694a15.263,15.263,0,0,1-5.967,5.231L25.07,51.183A1.236,1.236,0,1,0,26.16,53.4l2.559-1.257a17.741,17.741,0,0,0,6.935-6.08l.971-1.457,10.109,3.724V59.759A3.52,3.52,0,0,0,46.9,60.82H11.923l1.359-1.092,5.354-2.63A1.236,1.236,0,0,0,19.2,55.444ZM50.267,60.82a1.063,1.063,0,0,1-1.061-1.061V47.469a1.236,1.236,0,0,0-.809-1.16L38.034,42.492l1.345-2.019.614-.921,9.471,2.939a3.41,3.41,0,0,1,2.41,3.272V57.1a1.239,1.239,0,0,0,.157.6l1.742,3.113Zm0,0" transform="translate(1109.206 1049.354)" fill="#468df0"/>
  </g>
</svg>
