<svg xmlns="http://www.w3.org/2000/svg" width="125" height="125" viewBox="0 0 125 125">
  <g id="Grupo_525" data-name="Grupo 525" transform="translate(-157 -1029)">
    <path id="Caminho_2026" data-name="Caminho 2026" d="M62.5,0A62.5,62.5,0,1,1,0,62.5,62.5,62.5,0,0,1,62.5,0Z" transform="translate(157 1029)" fill="#468df0" opacity="0.09"/>
    <path id="hat" d="M11.121,41.025c6.8,2.648,15.818,4.107,25.39,4.107S55.1,43.673,61.9,41.025c7.172-2.794,11.122-6.654,11.122-10.871,0-3.014-2.027-5.879-5.863-8.286a42.314,42.314,0,0,0-13.218-4.929,17.437,17.437,0,0,0-34.859,0A42.328,42.328,0,0,0,5.87,21.863C2.03,24.271,0,27.138,0,30.154,0,34.37,3.95,38.231,11.121,41.025ZM21.6,20.858H51.427v6.007a43.681,43.681,0,0,1-29.832,0ZM36.511,2.487A14.938,14.938,0,0,1,51.427,17.438v.933H21.6v-.933A14.938,14.938,0,0,1,36.511,2.487Zm-17.4,17v8.243a1.228,1.228,0,0,0,.78,1.16A46.37,46.37,0,0,0,36.52,31.977a46.3,46.3,0,0,0,16.617-3.089,1.223,1.223,0,0,0,.776-1.16V19.485c10.1,2.293,16.606,6.415,16.606,10.669,0,3.077-3.468,6.194-9.529,8.555-6.521,2.54-15.213,3.938-24.482,3.938s-17.964-1.4-24.485-3.938C5.96,36.347,2.5,33.229,2.5,30.153,2.5,25.9,9.01,21.778,19.109,19.485Zm0,0" transform="matrix(0.966, -0.259, 0.259, 0.966, 180.044, 1078.391)" fill="#468df0"/>
  </g>
</svg>
